<svg width="24" height="24" viewBox="0 0 24 24" fill="none" xmlns="http://www.w3.org/2000/svg">
<path fill-rule="evenodd" clip-rule="evenodd" d="M2 7.5C2 7.22386 2.22386 7 2.5 7H14C18.1421 7 21.5 10.3579 21.5 14.5V20.5C21.5 20.7761 21.2761 21 21 21C20.7239 21 20.5 20.7761 20.5 20.5V14.5C20.5 10.9101 17.5899 8 14 8H2.5C2.22386 8 2 7.77614 2 7.5Z" fill="#848484"/>
<path fill-rule="evenodd" clip-rule="evenodd" d="M7.85355 2.14645C8.04882 2.34171 8.04882 2.65829 7.85355 2.85355L3.20711 7.5L7.85355 12.1464C8.04882 12.3417 8.04882 12.6583 7.85355 12.8536C7.65829 13.0488 7.34171 13.0488 7.14645 12.8536L2.14645 7.85355C1.95118 7.65829 1.95118 7.34171 2.14645 7.14645L7.14645 2.14645C7.34171 1.95118 7.65829 1.95118 7.85355 2.14645Z" fill="#848484"/>
</svg>
